
<global>
amp_veltrack=0
ampeg_release=0.50
</global>

<group>
group_label=Group_0-45
lpc_hicc1=42
lpc_locc1=0

<region>
hikey=a3
hivel=127
lokey=g#3
lovel=1
lpc=x+DDQjNmIcP90WVCkvWFwV/IaEGkCr9Ar4P5QPsQpcCpR5lAls1gP92wTr/87zm/3CSxwCo1K78SNQtAxyo7wIN2Yj98t+dAZF6AwPUe27/fDFE+cqmgv4v1oMBaZeVA
lpc_rms=-29.43
pitch_keycenter=a3
sample=Clarinet_trill_wholetone_PP_A3.opus
</region>

<region>
hikey=a4
hivel=127
lokey=g#4
lovel=1
lpc=CROJQuAo18IbLtdBlo4nQazO1ED7ReU/tGFrwNk8EMGnSidBZGfDQKdLFMEKs0ZAn1MCwBNbLsAjJ0dAojgkwaBGQkEIisU/ji9OwCVRM8C2J7NAP35mwOnPA0H7EMPA
lpc_rms=-29.54
pitch_keycenter=a4
sample=Clarinet_trill_wholetone_PP_A4.opus
</region>

<region>
hikey=a5
hivel=127
lokey=g#5
lovel=1
lpc=WuFyQsHZ4sL9SoVCPmqgwZwEYkGrzCBBXoUvwcHyv8DNstNAcoKnP3xaocBzLRZBWk65vpIkOcA887q/RHRoP4cXCEABMTm+HbGpQMBKaT/FkOE/RmyhwEdSS8EnoF9B
lpc_rms=-26.46
pitch_keycenter=a5
sample=Clarinet_trill_wholetone_PP_A5.opus
</region>

<region>
hikey=b3
hivel=127
lokey=a#3
lovel=1
lpc=GoGdQiFODsMmpHRCbrVswQ1slUHPyvs//WJyQBGJ3cDB5xVA9sCbvmuFMT865sS/9us3v4wSCMCyAQhAxyc4wGSbEMA0j55Aguo/PwG4TECw1Ym+OZMhwPT5K8Fmkh9B
lpc_rms=-29.70
pitch_keycenter=b3
sample=Clarinet_trill_wholetone_PP_B3.opus
</region>

<region>
hikey=b4
hivel=127
lokey=a#4
lovel=1
lpc=BFlpQvWHYsJh8mvB96lmwelXh0GYeIxBK/fkwCqPsEAz4JDA0+S9QMoaf8ADr9e/UrndQFWDssBO0U3Az5ahPquGwUCNkUg/R2GAv4CCeT5blW/AfebuviXNwz/Spxg/
lpc_rms=-25.91
pitch_keycenter=b4
sample=Clarinet_trill_wholetone_PP_B4.opus
</region>

<region>
hikey=b5
hivel=127
lokey=a#5
lovel=1
lpc=GbU2Qgy408KjzcNCTL5EwsGdz0FwSCnBrst/QL7QL8FO7khBvxNwPDbok8CHiN9A4lfCvlqErMBimthAeI0iwCbnCT/Q6HBAjJ+Qvs2rS8BoMCA/QT5FQPW2iMDKnZBA
lpc_rms=-28.35
pitch_keycenter=b5
sample=Clarinet_trill_wholetone_PP_B5.opus
</region>

<region>
hikey=c#4
hivel=127
lokey=c4
lovel=1
lpc=2/DXQQ745sF6lc4+DFECwYelw0BAwCBAPK+APWY0pb0UCVRAN4y8v1LGsD9gJO+/8PVLQDr/uL+Zaqm+5GDYv3etE0DxPVvAait1QHhfP8BJInM/1GcHwLRKF8DFq6ZA
lpc_rms=-31.15
pitch_keycenter=c#4
sample=Clarinet_trill_wholetone_PP_C#4.opus
</region>

<region>
hikey=c#5
hivel=127
lokey=c5
lovel=1
lpc=rtSqQn5uDMOLeS1CB+IEwZJL8UG4t5Y/YkTbwLrBR7/Qr7nA8AavQNqW2D+0sPjA+fwZQSzwvcB57ee+ctI0QNv8/EAmm9c9NuUdwNL4H0B0gFTBee/ZviebB8DlER1B
lpc_rms=-25.94
pitch_keycenter=c#5
sample=Clarinet_trill_wholetone_PP_C#5.opus
</region>

<region>
hikey=c#6
hivel=127
lokey=c6
lovel=1
lpc=u6ZDQvGE1MI2hLZCbNTlwUnAO0DUPgxBtPCTwTw7tEHvl/3AYVLev31cBkHUMANAp7pAvpCwjr+FhQVBj6SiwE+mG0HHVNDA0WvMwCT2lkCClalBFnQvwaWQZMEVh2JB
lpc_rms=-23.22
pitch_keycenter=c#6
sample=Clarinet_trill_wholetone_PP_C#6.opus
</region>

<region>
hikey=d#4
hivel=127
lokey=d4
lovel=1
lpc=046XQsEG+MJ4TEVCdfebwWHqs0Hw5AVAOLgowHwb/MB7LDhAVacyQdhBl8BZZd7AcEbZQHjoyr5dtanAXj6Fv7RLIkBZU7lAtPCkwDLbmb6VUZ68l0hZvxDaKsBVVblA
lpc_rms=-28.66
pitch_keycenter=d#4
sample=Clarinet_trill_wholetone_PP_D#4.opus
</region>

<region>
hikey=d#5
hivel=127
lokey=d5
lovel=1
lpc=f73tQUO+NsKlIJ1BLPsWwZjnvEAENq4/tHXGP++DszxnBh+/caRiQLsZhsCoRkRAF+kHwHI3mb+b6A0+0klePx+0ej99zhtATpAIwPQMpz5L37w+HL+9vtB+b7/xu6k/
lpc_rms=-34.63
pitch_keycenter=d#5
sample=Clarinet_trill_wholetone_PP_D#5.opus
</region>

<region>
hikey=d#6
hivel=127
lokey=d6
lovel=1
lpc=Bx8dQukkqsIor7BCcOUxwmT8KUFM2EtBdf/bvwUugMH+yPNBpfiAwXjlr0B/oWZBWKTRwDHbm7yw6ZZBowY3wfRKGsCTIb2+1X4dQrwoT8KigC1Cs/vAwQUMDUGC73hA
lpc_rms=-22.59
pitch_keycenter=d#6
sample=Clarinet_trill_wholetone_PP_D#6.opus
</region>

<region>
hikey=f4
hivel=127
lokey=e4
lovel=1
lpc=+xi7QiCkE8OW6AVCHgtbPynpqUESh0hBABcXwfMvE8DaFi/BN6qdQVzgH8G8aw7A7N6GQEF3NMB1nEDA6niWQC82oMAHnMtAotPsP6jVD8AW8Ko9E4/dwB7NIkG1VYXA
lpc_rms=-27.25
pitch_keycenter=f4
sample=Clarinet_trill_wholetone_PP_F4.opus
</region>

<region>
hikey=f5
hivel=127
lokey=e5
lovel=1
lpc=PIhDQoei3sLE3r1CWX9CwvJFCUKGFJDBNx4kwOTijUAqLWZAl4EyQLDaL8CIg+fAt33tQD7UI8C/NyBAt1cywEEzxj/y0vY/GuS4P2n/L8D4oAZARneIwCeOS0Acx7o+
lpc_rms=-27.70
pitch_keycenter=f5
sample=Clarinet_trill_wholetone_PP_F5.opus
</region>

<region>
hikey=f6
hivel=127
lokey=e6
lovel=1
lpc=Fmi9QQ1uOsI0bC9CCjCUwTkUy0CSVqu7jAbLP5MlvL942+FACxU2wMmSo0Cgy+i/mACEQGODY8DowBNB3tVfwbPbQEHBf47AHFWoQBcEisB+fAJAOaCNwJBzCEG6jKXA
lpc_rms=-20.44
pitch_keycenter=f6
sample=Clarinet_trill_wholetone_PP_F6.opus
</region>

<region>
hivel=127
key=g3
lovel=1
lpc=jLmXQn0bCsNmdZZCziPZwawXLUGVMxM/EcqUQJjR8sCSa9BAO3q/PgQg27+arB1AmR5iP+hcPD8j9DbAhuoTQIBFYsDFtalAYikLwMA1lcD8/AJAJU0pwOCkfsCKxOtA
lpc_rms=-28.02
sample=Clarinet_trill_wholetone_PP_G3.opus
</region>

<region>
hikey=g4
hivel=127
lokey=f#4
lovel=1
lpc=MkmOQmAEy8JzWbtB+srqwLCOm0EAGPHAtvNnP1ddI8HdH5ZBpNXBwJwJHUHxJfLAovKxQECE88BSogtAxOjxwCjoW0CBJFfAFe1cQNjBx0CDMU/ASTrxP3zqSUDu4JDA
lpc_rms=-29.71
pitch_keycenter=g4
sample=Clarinet_trill_wholetone_PP_G4.opus
</region>

<region>
hikey=g5
hivel=127
lokey=f#5
lovel=1
lpc=Fs1eQnBDCcM9wgNDmR+UwhKfLELWCobBH1uFP1HjEMDXQtJA4FOowBRqusBpA1tB9OP5v9f/98BZdbtAA/PswDW8Y0Ffl3XAzyfhwHFpl0BJtT/AM7ASQa6aO8EeF7hA
lpc_rms=-24.95
pitch_keycenter=g5
sample=Clarinet_trill_wholetone_PP_G5.opus
</region>

<region>
hikey=C7
hivel=127
lokey=f#6
lovel=1
lpc=ZOGcQUhcBcKrSP9BOWBgwYNcuUBGTJe/k58PQUg6R8FouVJB+HpwwE6HqED7ao/AfqkfQTuYasEeYAVBUxbYwKvOMEHNp4DBaa1MQZWAKcGyvaBAsm5swCX5h0ApqMnA
lpc_rms=-21.98
pitch_keycenter=G6
sample=Clarinet_trill_wholetone_PP_G6.opus
</region>
</group>

<group>
group_label=Group_46-90
lpc_hicc1=84
lpc_locc1=43

<region>
hikey=a5
hivel=127
lokey=g#5
lovel=1
lpc=augNQkYZq8LF3LhCNy5lwmbHwEFUQR/AWeCrwGjQLECjsrhAv4ANwebfP0ExmDbBSefUQDKqG7/OwBRAQEzKwPmSCkGawUHAkvdVwMS8/UBQKbbAA5L2QFPiIsG60pZA
lpc_rms=-17.24
pitch_keycenter=a5
sample=Clarinet_trill_wholetone_MF_A5.opus
</region>

<region>
hikey=b5
hivel=127
lokey=a#5
lovel=1
lpc=2izFQSFIdMJYeJJC/j5QwhdisEFCPCpAwungwKP4LMCqXVhByfEewTI0cj/n/IhAzrrEQKrMgMFSC55B5UYzwfPBtD8F66g+lpEbQXmcQcGe4L1A+FNFP5nkkMDciIVA
lpc_rms=-13.00
pitch_keycenter=b5
sample=Clarinet_trill_wholetone_MF_B5.opus
</region>

<region>
hikey=c#6
hivel=127
lokey=c6
lovel=1
lpc=tkTZQRdehcLNWpRCmBQqwuokg0G1qwvBv9BRQdiMQcFcuR9BWL/0vzibXsBj/ehAbqIowBfYXUACLN3AHcCDQd5ilcHwepFBlUtkwUUYDr7RfLFBG3++wXL5HEE30wg9
lpc_rms=-16.13
pitch_keycenter=c#6
sample=Clarinet_trill_wholetone_MF_C#6.opus
</region>

<region>
hikey=d#6
hivel=127
lokey=d6
lovel=1
lpc=zeqcQXnnLcLjUE1CHoAPwnnOpUGfuOHAjWChQPhd5MAbPnpB3kszwTO1skDETptAGOGCwCPKsUBAW3e+YaHePxWYosDZfedA58YqQBSfO8FON5VBIheBwfazGEGmEcS/
lpc_rms=-17.94
pitch_keycenter=d#6
sample=Clarinet_trill_wholetone_MF_D#6.opus
</region>

<region>
hikey=f6
hivel=127
lokey=e6
lovel=1
lpc=QaR9QROozMEhI+RBip2Bwdb5PkFFOhm+rA57QGt83r/9zBRBZTvuvvc7k0BCmZ5A28KUQDBh8L3mljBB67AzwdO3h0HkhQDBrQQSQbvl978c+Is/Rid2QDk4yr8SI15A
lpc_rms=-17.37
pitch_keycenter=f6
sample=Clarinet_trill_wholetone_MF_F6.opus
</region>

<region>
hikey=C7
hivel=127
lokey=f#6
lovel=1
lpc=G0JiQRKazcHoPtJB0HluwSbV4UA8lQO+TyUpvy3Dfb61/65As5ifwJB7gEAbrK0/IYZQwFKVQUAUU4rAgDWdvj29tkDPX9LANrjOP1qfQ0CRec3AsOK5QII7NsAIjXG/
lpc_rms=-15.43
pitch_keycenter=G6
sample=Clarinet_trill_wholetone_MF_G6.opus
</region>

<region>
hikey=a3
hivel=127
lokey=g#3
lovel=1
lpc=RNpFQpbRFsNKcTlDW2jtwiBhPUIl2ZTBz2S9QF4yur/EgXZA4RNBQKHaWMGAmopBRduYwYB7MkFO35RAdHsUwbc6ij8VARRBvbxVwUQ2HEGYao3A45qXQI015cDA03JA
lpc_rms=-18.64
pitch_keycenter=a3
sample=Clarinet_trill_wholetone_MF_A3.opus
</region>

<region>
hikey=a4
hivel=127
lokey=g#4
lovel=1
lpc=VZ40QtID48Lo49hCbYspwoquHkGbFzvBBe+yQFUZy8ADgGVBPgvxP7LSocFkRGpBLUR9wKo3c8DFDtZACRc1wK+AGEBoWWHAh34CQGT4scBO0RtBqafgP4WtYcGI8hpB
lpc_rms=-17.47
pitch_keycenter=a4
sample=Clarinet_trill_wholetone_MF_A4.opus
</region>

<region>
hikey=b3
hivel=127
lokey=a#3
lovel=1
lpc=t8cMQhhs2cL+wQZDZd+nwnCYzUF+j0TAgx/WPCW9Ej6jJRZARCiLwE2YrUDG00nATCWZwMYS9EDpWKnA4N1EQOQbMcCk4QNBtgURwUmW4D/1nA3AlWMjQWNtJ8GcZGRA
lpc_rms=-20.48
pitch_keycenter=b3
sample=Clarinet_trill_wholetone_MF_B3.opus
</region>

<region>
hikey=b4
hivel=127
lokey=a#4
lovel=1
lpc=2JtIQkORysIPZ2VCeL5pQL+e3j+/Kv/AAOhzwYJQWkEdymhA95K8v4nA7z9Tp0LBxFJKQR9uocDNefK+yyVMP36DScBsPwpBD/ZgwCuct7/AV/e/WNqUQEs1AUB/AEPA
lpc_rms=-16.34
pitch_keycenter=b4
sample=Clarinet_trill_wholetone_MF_B4.opus
</region>

<region>
hikey=c#4
hivel=127
lokey=c4
lovel=1
lpc=N7/XQSbzhcLbCFVCIDZcwfsFJkHx/VfB30DTP2fUur9h+glBOWRvwFTITMC5vh5ALvRbu7UQCcDtC9A/4ZRFvoDFMECwM5rAXYWOQE/OvcA06NtAvEINwDO7MMBEuQBA
lpc_rms=-20.35
pitch_keycenter=c#4
sample=Clarinet_trill_wholetone_MF_C#4.opus
</region>

<region>
hikey=c#5
hivel=127
lokey=c5
lovel=1
lpc=ylBkQmVME8PXEBVDQzCSwg0do0HT8QvBmlmtv192vUGOIQPCfp6KQWG2NUBuMdfA1cRWQHaOIsGpQohBqaFKwaDuJ0DVXABBHpIfwD+OScDI6j6/DN/9PgIjB72B250/
lpc_rms=-14.07
pitch_keycenter=c#5
sample=Clarinet_trill_wholetone_MF_C#5.opus
</region>

<region>
hikey=d#4
hivel=127
lokey=d4
lovel=1
lpc=ZTZBQgI0B8PvPBBDT26Wwk8rAELzrqrBKEnHQNXdB0CrFGnAaIgYQaNOEMHIhKdAOg/fwDQ3GEDxznlAobtjwHktuUBia63AULxsvkCHTj/wI5O61qWKQGDEAMHsdJhA
lpc_rms=-18.92
pitch_keycenter=d#4
sample=Clarinet_trill_wholetone_MF_D#4.opus
</region>

<region>
hikey=d#5
hivel=127
lokey=d5
lovel=1
lpc=9oGRQas7R8LAeoFC8/NXwnJbAUKObSvB4oQ6P1i1UMBJMBlBdfA/wcibLUH7TJjA9/Xxv9mnTkDLddE+UbMxwMfrNkA8BBc/SuaEwC7P9UBqeyXBi2AuQWww/MBdLmhA
lpc_rms=-16.87
pitch_keycenter=d#5
sample=Clarinet_trill_wholetone_MF_D#5.opus
</region>

<region>
hikey=f4
hivel=127
lokey=e4
lovel=1
lpc=ILQ/QmkPCcNJSBxDho+twsZi3EFeJxvBCbA8vzBVcsBguX5BZ7mCwDaJTcH030dBrrEkwBi1nMDC+dU/f18dQIN5OMBlASlBAN1mwS7o3b/ptQhBVB5SQUT4x8E9ADpB
lpc_rms=-17.89
pitch_keycenter=f4
sample=Clarinet_trill_wholetone_MF_F4.opus
</region>

<region>
hikey=f5
hivel=127
lokey=e5
lovel=1
lpc=HwvJQfy7icKWhatCX+N+wiUABELHJA/BzrC+Py2HKMHCFJNB3dxNwRPqukDZOsS/CIaaPxINQsA4cUxAySLpPhN2GsCnQJ9AuX3HwMlskEC0eAs/6k2cwKhUx0C6lQbA
lpc_rms=-16.47
pitch_keycenter=f5
sample=Clarinet_trill_wholetone_MF_F5.opus
</region>

<region>
hikey=g4
hivel=127
lokey=f#4
lovel=1
lpc=w8NCQskbBcOeGBBDz/2dwsRGEEK7Z+/BaTKwQVgus8HwwepBLPlywe6MgT9qAmu/V6oWwC+bSEC/GRG/8CFkPQ+cSEB8guG/WXLtwMcSCkEanIjAUl5VQf9BqMHamC5B
lpc_rms=-16.71
pitch_keycenter=g4
sample=Clarinet_trill_wholetone_MF_G4.opus
</region>

<region>
hikey=g5
hivel=127
lokey=f#5
lovel=1
lpc=1V7mQcHrmMI9nLZC+xt9wvpO5EED+DfAiPC9wMR6xr9TcBdB8VqdwBBXVT9LLaDAgJZ2QYv9rMFNoJ9BZy4twXxHsz5PNCJB0BxDwQg5j0AttexAeb9ywYxya0HgcLjA
lpc_rms=-14.42
pitch_keycenter=g5
sample=Clarinet_trill_wholetone_MF_G5.opus
</region>

<region>
hivel=127
key=g3
lovel=1
lpc=3096QlPgJ8PwDyRDOsihwsstHULWfKTBUXs8QN6yVsBR4b5Ac3lpQOpIA8FP9d0/EbHqv7V9B0CwzTW/11F0QELnicDzYc9AKUW3wKeN7b9cvGlAmlstv4iK279taeA/
lpc_rms=-20.26
sample=Clarinet_trill_wholetone_MF_G3.opus
</region>
</group>

<group>
group_label=Group_91-127
lpc_hicc1=127
lpc_locc1=85

<region>
hikey=a5
hivel=127
lokey=g#5
lovel=1
lpc=GTFGQfmDv8G6GNJBNLGMwesEEkEQCly/l32Dvs5VNMAJqvtAC+TGwP9ycECb0bG+JhZUP4oum78mU01AGofxvzKvlj/3S+w/Jk2vvw4FHUD1diPAqOdsQDV0Br8EE92+
lpc_rms=-13.30
pitch_keycenter=a5
sample=Clarinet_trill_wholetone_FF_A5.opus
</region>

<region>
hikey=C7
hivel=127
lokey=g#6
lovel=1
lpc=AC5OQYvZK8Fnk49BX2fNwDZlI0GN4W1AoDujQPJJlkA+bxZBCtGxPxtBSkGZ+CpAmce6QAMoRMDRY9FA4D27vzCZhj8ZThFA5KEkwG+Yvz/HIhM/mjCqwEgFlUBRYePA
lpc_rms=-12.81
pitch_keycenter=A6
sample=Clarinet_trill_wholetone_FF_A6.opus
</region>

<region>
hikey=b5
hivel=127
lokey=a#5
lovel=1
lpc=DIQwQe2LrMElT8FBPDmnwSnBjUEDei7BrrkJQSymE8HknytBn38BwZTdwEBvmoTAL8GbQKRZQcAp+0hAgqTdv7zKW71dgeA/a/giPxh4HL/Pjl0+pY05wFugc0BzPbe/
lpc_rms=-10.20
pitch_keycenter=b5
sample=Clarinet_trill_wholetone_FF_B5.opus
</region>

<region>
hikey=c#6
hivel=127
lokey=c6
lovel=1
lpc=BAkwQdNmusElNehB13/DwVVWlUFhq0LBfqgqQeOlDsG8nDlBDmEywTuzF0Hg8KbAQR15QNqbgL/Liwk/Y/wcQF2OJsDJSYZAarmJwPskTj836qdAyuMDwWmO7kCkPkXA
lpc_rms=-10.75
pitch_keycenter=c#6
sample=Clarinet_trill_wholetone_FF_C#6.opus
</region>

<region>
hikey=d#6
hivel=127
lokey=d6
lovel=1
lpc=kwZQQTKdy8Hu/99BMul/wYESCkFl3yjA9Mq7QC6l0cCp3TVBXrXpwM+3xUA7DAI/v2wmQBDuX79LrQRAwiKwQCfdusCM/0lAj1jEQCEqIsHcxjJBfFdNwAsnFsC8TVdA
lpc_rms=-11.22
pitch_keycenter=d#6
sample=Clarinet_trill_wholetone_FF_D#6.opus
</region>

<region>
hikey=f6
hivel=127
lokey=e6
lovel=1
lpc=1sgxQbN5iMGHw6ZB3I5NwcUuLkGWxxjAeevHQMUbW8AXHfhAeAKEP+Bg8T9Cv4dAEm2oQEaNQsCTzi9BKAKjwHGNrkCT2tK+E1KHQFLG1T5qCYq/Af+6QA8fnsD6Z5BA
lpc_rms=-11.67
pitch_keycenter=f6
sample=Clarinet_trill_wholetone_FF_F6.opus
</region>

<region>
hikey=g5
hivel=127
lokey=f#5
lovel=1
lpc=6Ls9QdWd0cF0zOVBOBefwRGhS0EJns7AD0xNQD5QsMDjhy1BkPLcwP/LiL+VZHJAiHsfP4JHGcBvD11A+StewIxw7D+SlANALMWOP2Df08AfwuhAO5wKwGADYr5Qi0s/
lpc_rms=-9.67
pitch_keycenter=g5
sample=Clarinet_trill_wholetone_FF_G5.opus
</region>

<region>
hikey=g6
hivel=127
lokey=f#6
lovel=1
lpc=+0c1QdsUNcFetmdBY6jkv/TXlUAdnqlAqfy4QMee7j++ODBBRQ+hPi73RUHjjG5ATc0mQU7OiEBnsndAkQHwQD1igEBIUjRADXC6QHp59T7Pdp9AOpWWP2Qt9D8R9wtA
lpc_rms=-13.58
pitch_keycenter=g6
sample=Clarinet_trill_wholetone_FF_G6.opus
</region>

<region>
hikey=a3
hivel=127
lokey=g#3
lovel=1
lpc=6a25QR5sg8KapZtCU/RMwp7elUFvQX2/tsZRv1oC0sC0rzBBHuPQwF2SWkC2jrDAOrKyQODXxcBJWPRAw+TYwLmCn0AKlha/Ah5vwMa2ZEC5/y++wTPWv73H6T4rRoc+
lpc_rms=-15.78
pitch_keycenter=a3
sample=Clarinet_trill_wholetone_FF_A3.opus
</region>

<region>
hikey=a4
hivel=127
lokey=g#4
lovel=1
lpc=ymXJQVzzdMJo231CWiUMwhloaEGRYxPBoZIfQWnOh8FznppBuP38wJT0hcDMtbFA8xkcv2lrM8AIBjtAzZkrwN3L6T8JHUdALJ7YwPJNjkBx16XAiLBIQcJfYcEDv+tA
lpc_rms=-15.23
pitch_keycenter=a4
sample=Clarinet_trill_wholetone_FF_A4.opus
</region>

<region>
hikey=b3
hivel=127
lokey=a#3
lovel=1
lpc=67KaQQK/XsL5S4RC7KYkwrmOaUHjx2PAnHabv7Anyj+GWZk/tQfgP+kK3MD9EtpAY0xBwOp8dr4rUaM+CYG/v3IBXUBL6UW9vSiMwDGWCUDCIv4/8tERv3nbx7/+LTs/
lpc_rms=-17.99
pitch_keycenter=b3
sample=Clarinet_trill_wholetone_FF_B3.opus
</region>

<region>
hikey=b4
hivel=127
lokey=a#4
lovel=1
lpc=j3AFQtlnlcKOy4NCr6fEweSatEA2SBbBiBPlQEp3C8BxwW1Ag0+hwJ2udUBumkLAmVvSP1rKikBFgRPBga64QLRuAcCtq74/JC9OQO8sBsGK1QFBqJOpv0/ApT9wP5u/
lpc_rms=-12.51
pitch_keycenter=b4
sample=Clarinet_trill_wholetone_FF_B4.opus
</region>

<region>
hikey=c#4
hivel=127
lokey=c4
lovel=1
lpc=pvOFQR94N8KC3EdCnELmwfMOVUGIneDA2OXbPwWSWsAkj9pAcPHmv32CG8Ai+5S/Mt2VQK4rQcDI6nU/w255wEow4ECvZXDApDDZPVak3b+lmCtAq5QAPgtr47++IFs/
lpc_rms=-18.53
pitch_keycenter=c#4
sample=Clarinet_trill_wholetone_FF_C#4.opus
</region>

<region>
hikey=c#5
hivel=127
lokey=c5
lovel=1
lpc=FFXmQcPTisLtDI5CIEwqwjYe5kEOm+3BFJvGQQ77acHDV1RACdSBQJtTsb+tymXATaNUvgNboUDhTAvAdT+Zvp+Tt7+Wi1BAWD2RP+QEfMCsyK5A7cKIwAVoDkCpvV+/
lpc_rms=-11.75
pitch_keycenter=c#5
sample=Clarinet_trill_wholetone_FF_C#5.opus
</region>

<region>
hikey=d#4
hivel=127
lokey=d4
lovel=1
lpc=u0XIQeXbhsJff51CisxYwllo7EHjU4HBu+IiQUUsbsHJ+HtB6/FSwM2X1MDq0rtAnLKTwGQeREDgb5M/qR6TwCZ7ZkDa+Ec/8/VxwM47a0BUMU3Ak13AQCL82sAut1lA
lpc_rms=-15.74
pitch_keycenter=d#4
sample=Clarinet_trill_wholetone_FF_D#4.opus
</region>

<region>
hikey=d#5
hivel=127
lokey=d5
lovel=1
lpc=iqMXQWVHr8HP0dZBkr/HwVM2okHYRCTBhD8QQCGNLMBAgs1AE7bYwAS250AQuMnAON7ePzvHKD1oNAZAr5zKvwQ1Ij5awro/XEh2wOnk7UC4s+TAF4O4QL2jjsDHWRlA
lpc_rms=-12.69
pitch_keycenter=d#5
sample=Clarinet_trill_wholetone_FF_D#5.opus
</region>

<region>
hikey=f4
hivel=127
lokey=e4
lovel=1
lpc=VHmzQesnc8LmDYtCj3I3wllCy0FSI5PB6aB9QZdTjsGDy39BDqxIwAVP08BByWFA8QykQFV0GcFDGbZAbx3rvpkbYr7unKI+Gvn0vx6hK0BR/8TA1jJaQUBZZ8FQGsdA
lpc_rms=-14.29
pitch_keycenter=f4
sample=Clarinet_trill_wholetone_FF_F4.opus
</region>

<region>
hikey=f5
hivel=127
lokey=e5
lovel=1
lpc=LGtEQSK92cE8vfFBe961wTN9fUEGcAbBFLq8QJ6XKcGS/XhBqBo9wVgGzUDYGSnAcbgoQNuqg8CO39ZAtluNwFfIST+j0dw/dLjrvkUbsr9LfFNAbrB3v3IsFsDGO0BA
lpc_rms=-11.93
pitch_keycenter=f5
sample=Clarinet_trill_wholetone_FF_F5.opus
</region>

<region>
hivel=127
key=g3
lovel=1
lpc=veGuQb8xe8J6UJNC/K80wvtZdkEHn3jAsZ0QQN+SpcAC3x9BR6YDwYW7eEDoaG/AKiNtQFtulb8eXP+/Vg6SP3LrTD8K5NM/EKemwBiVdEAqFpU/RKm5v61v1r8YlrA/
lpc_rms=-16.67
sample=Clarinet_trill_wholetone_FF_G3.opus
</region>

<region>
hikey=g4
hivel=127
lokey=f#4
lovel=1
lpc=GASvQVTma8KieodC5U4xwteFxEFcepzBRImhQaYQusEGpodBh8PYPzoJKMGZF1pAvapnQBfTzMD+yN9AKq2DwM1bMUDvE43AnouAQGwOrL/tiqTA2jlfQZfubsFMN9pA
lpc_rms=-14.15
pitch_keycenter=g4
sample=Clarinet_trill_wholetone_FF_G4.opus
</region>
</group>